PathFileType	3	(X/Y/Z)	RCH0000002 BBF 11.c3d
DataRate	CameraRate	NumFrames	NumMarkers	Units	OrigDataRate	OrigDataStartFrame	OrigNumFrames
100.0	100.0	16	23	mm	100.0	421	502
Frame#	Time	T2			T10			MAN			LASI			RASI			LPSI			RPSI			LPAT			LKNE			LANK			LMED			LTOE			RPAT			RKNE			RANK			RMED			RHEE			RTOE			LHEE			RTHI			LTHI			RTIB			LTIB			
		X1	Y1	Z1	X2	Y2	Z2	X3	Y3	Z3	X4	Y4	Z4	X5	Y5	Z5	X6	Y6	Z6	X7	Y7	Z7	X8	Y8	Z8	X9	Y9	Z9	X10	Y10	Z10	X11	Y11	Z11	X12	Y12	Z12	X13	Y13	Z13	X14	Y14	Z14	X15	Y15	Z15	X16	Y16	Z16	X17	Y17	Z17	X18	Y18	Z18	X19	Y19	Z19	X20	Y20	Z20	X21	Y21	Z21	X22	Y22	Z22	X23	Y23	Z23	

421	4.200	1525.73655	-42.03928	954.21826	1545.96468	-79.48630	771.57520	1660.03942	-42.14875	931.11203	1642.63352	-18.38125	624.51820	1626.16174	-193.91060	634.31178	1529.40432	-55.19392	682.68225	1524.99962	-126.56953	688.68453	1693.97870	-76.02149	378.34763	1665.60089	-13.95508	331.48172	1606.47665	5.04767	65.17563	1600.65023	-65.36217	80.02837	1651.30272	-35.60375	62.96894	1594.43238	-148.77255	332.15868	1532.45398	-194.08148	318.86491	1346.11140	-196.83926	118.51512	1346.68969	-130.37397	136.89123	1335.19524	-169.62087	175.14911	1362.89082	-156.41037	77.84650	1562.94692	-31.64923	94.30217	1563.40816	-264.28611	425.67576	1645.53554	62.39139	450.75114	1452.20644	-262.24426	236.79758	1649.82868	56.15806	222.23044	
422	4.210	1535.36208	-43.73333	957.23175	1556.04608	-81.03678	774.82899	1669.69962	-43.27751	934.76904	1651.00515	-17.01316	627.99294	1636.66373	-192.79500	635.81331	1538.72442	-55.97613	686.65640	1534.99338	-127.44581	691.57272	1695.60306	-72.48470	378.79457	1665.78515	-10.48944	332.80295	1606.32957	6.81018	65.94191	1600.36793	-63.41482	81.40762	1650.95617	-34.05577	63.49238	1613.17792	-148.64891	334.59685	1550.99993	-193.66073	320.15375	1362.89449	-197.17599	122.63100	1364.28177	-130.27110	139.78768	1352.66372	-168.82376	178.74278	1380.14127	-157.83617	81.20315	1562.77218	-29.51200	95.62997	1578.56329	-263.82348	427.93781	1648.70959	65.11525	453.00527	1470.01768	-261.92322	240.09733	1649.58072	59.12270	222.72297	
423	4.220	1544.83308	-45.65180	960.57372	1565.71605	-82.36812	778.30258	1679.14224	-44.54757	938.59935	1659.08988	-15.53818	631.50493	1646.97232	-191.52933	637.77489	1547.76979	-56.57494	690.63843	1544.73396	-128.09612	694.63597	1696.87541	-69.10934	379.35208	1665.61622	-7.18979	334.20410	1606.22707	8.20323	66.76057	1600.33249	-61.83085	82.79289	1650.78135	-32.73704	64.07384	1631.88736	-148.42989	337.85069	1569.63421	-193.27913	322.13947	1380.49534	-197.51200	126.64918	1382.59402	-130.18582	142.58826	1370.52085	-168.03723	182.11473	1398.69639	-159.30594	84.76313	1562.69968	-27.86446	96.92678	1593.78569	-263.35792	430.82399	1651.51250	67.73775	455.22853	1488.11498	-261.63143	243.74743	1648.91653	61.85747	223.29603	
424	4.230	1554.15936	-47.71165	964.11320	1575.00538	-83.46481	781.86690	1688.38402	-45.92035	942.48025	1666.92890	-13.99271	634.94766	1657.10700	-190.14906	640.09278	1556.56226	-57.01151	694.49965	1554.23822	-128.54213	697.75224	1697.97462	-66.01038	379.97337	1665.31085	-4.17773	335.62601	1606.16014	9.18358	67.63175	1600.55305	-60.65926	84.16562	1650.77595	-31.68497	64.69118	1650.53456	-148.13516	341.79943	1588.32839	-192.94167	324.72403	1398.87891	-197.83433	130.42744	1401.57688	-130.12063	145.19632	1388.76543	-167.28416	185.16118	1418.44787	-160.76962	88.38654	1562.75076	-26.76694	98.20763	1609.07623	-262.90368	434.22017	1654.10692	70.16882	457.34053	1506.47179	-261.37295	247.60860	1647.96959	64.26266	223.93666	
425	4.240	1563.35363	-49.83107	967.71652	1583.95302	-84.32780	785.39556	1697.44634	-47.35582	946.28872	1674.55738	-12.40985	638.22567	1667.08933	-188.68822	642.64588	1565.12109	-57.31970	698.12442	1563.52337	-128.81987	700.80111	1699.07089	-63.25341	380.61169	1665.06153	-1.52988	337.01477	1606.11814	9.75052	68.55036	1601.02029	-59.90496	85.51300	1650.92401	-30.90579	65.32315	1669.10954	-147.78496	346.30595	1607.06917	-192.64798	327.78847	1418.01965	-198.12588	133.83628	1421.19346	-130.06959	147.52295	1407.42065	-166.57876	187.78926	1439.27512	-162.17220	91.93425	1562.93642	-26.22354	99.48797	1624.44215	-262.47130	437.99463	1656.63010	72.34881	459.27851	1525.08091	-261.14520	251.53534	1646.87459	66.28331	224.62792	
426	4.250	1572.43111	-51.93500	971.25447	1592.60306	-84.97337	788.77112	1706.35428	-48.81501	949.90698	1682.00382	-10.81874	641.25822	1676.94081	-187.17796	645.30365	1573.46310	-57.54246	701.41499	1572.60623	-128.97580	703.66987	1700.31280	-60.85555	381.22002	1665.02370	0.72376	338.32239	1606.09529	9.94358	69.50284	1601.71179	-59.53103	86.82421	1651.20333	-30.37694	65.94837	1687.61351	-147.39706	351.22914	1625.85456	-192.39216	331.20406	1437.89936	-198.36814	136.76878	1441.41790	-130.02058	149.49419	1426.52418	-165.92813	189.92384	1461.05535	-163.45913	95.27999	1563.26062	-26.18380	100.77712	1639.89196	-262.06692	442.00884	1659.18587	74.24936	460.99809	1543.95121	-260.94015	255.38804	1645.76104	67.90966	225.34795	
427	4.260	1581.40914	-53.95977	974.60887	1601.00208	-85.43095	791.89042	1715.13564	-50.26234	953.22772	1689.29064	-9.24439	643.98177	1686.68120	-185.64568	647.93442	1581.60372	-57.72771	704.29493	1581.50308	-129.06234	706.25880	1701.81667	-58.79260	381.75231	1665.30826	2.59558	339.50794	1606.09299	9.83578	70.46701	1602.59583	-59.46580	88.08805	1651.59013	-30.05234	66.54532	1706.05284	-146.98364	356.43476	1644.68914	-192.16263	334.84328	1458.50451	-198.54392	139.14727	1462.23321	-129.95793	151.05547	1446.11804	-165.33382	191.51156	1483.67281	-164.58162	98.31965	1563.72155	-26.55107	102.07485	1655.43060	-261.69159	446.12779	1661.84209	75.87077	462.47290	1563.10261	-260.74580	259.04353	1644.74634	69.17230	226.07055	
428	4.270	1590.30686	-55.85662	977.67798	1609.19674	-85.74015	794.66877	1723.82003	-51.66764	956.15866	1696.43569	-7.70774	646.35153	1696.32754	-184.11454	650.41345	1589.55855	-57.92393	706.71102	1590.23008	-129.13312	708.48526	1703.65939	-57.01060	382.16578	1665.97946	4.13181	340.53907	1606.11896	9.52301	71.41419	1603.63403	-59.61371	89.29205	1652.06137	-29.87002	67.09317	1724.43247	-146.54889	361.80363	1663.57826	-191.94207	338.58891	1479.82363	-198.63936	140.92618	1483.62898	-129.86485	152.17285	1466.24018	-164.79299	192.52172	1507.02609	-165.50098	100.97698	1564.31163	-27.19657	103.37096	1671.05515	-261.34074	450.22835	1664.63348	77.23669	463.69312	1582.55991	-260.54732	262.40289	1643.92927	70.13316	226.76710	
429	4.280	1599.14488	-57.59391	980.38054	1617.23194	-85.94740	797.04260	1732.43800	-53.00776	958.62611	1703.45450	-6.22601	648.34183	1705.89393	-182.60359	652.63007	1597.34512	-58.17604	708.63361	1598.80407	-129.23856	710.28637	1705.87567	-55.43905	382.42380	1667.05753	5.40138	341.39348	1606.18412	9.11131	72.31288	1604.78361	-59.86831	90.42297	1652.59542	-29.76081	67.57306	1742.74933	-146.08741	367.23635	1682.52196	-191.70745	342.34070	1501.84533	-198.64517	142.09068	1505.59920	-129.72521	152.83082	1486.91861	-164.29931	192.94376	1531.03255	-166.19133	103.20497	1565.01713	-27.97671	104.64727	1686.75148	-261.00384	454.20525	1667.56832	78.38724	464.66328	1602.34613	-260.32798	265.39579	1643.38412	70.87395	227.40903	
430	4.290	1607.94499	-59.15783	982.65819	1625.14953	-86.10231	798.97072	1741.02027	-54.26767	960.57745	1710.36289	-4.81311	649.94544	1715.39198	-181.12801	654.49329	1604.98461	-58.52179	710.05537	1607.24357	-129.42199	711.62015	1708.45993	-54.00358	382.49860	1668.52478	6.48416	342.05990	1606.29854	8.70379	73.13299	1605.99939	-60.12548	91.46813	1653.17177	-29.65684	67.96966	1760.98650	-145.58368	372.65434	1701.50890	-191.43023	346.01860	1524.55720	-198.55689	142.65193	1528.13993	-129.52483	153.02773	1508.16831	-163.84357	192.78222	1555.62972	-166.64026	104.98344	1565.81792	-28.75111	105.88108	1702.49230	-260.66440	457.97389	1670.63761	79.37165	465.39941	1622.47609	-260.06952	267.98098	1643.15652	71.48400	227.97062	
431	4.300	1616.72988	-60.55179	984.47618	1632.98754	-86.25429	800.43397	1749.59706	-55.44107	961.98224	1717.17945	-3.48008	651.17199	1724.83177	-179.69970	655.93559	1612.50319	-58.98906	710.98872	1615.56989	-129.71679	712.46517	1711.37250	-52.63638	382.37338	1670.33425	7.46015	342.53855	1606.46776	8.38920	73.84971	1607.23601	-60.29494	92.41729	1653.77058	-29.49904	68.27259	1779.10889	-145.01234	377.99728	1720.51141	-191.07683	349.56253	1547.94502	-198.37439	142.63985	1551.24666	-129.25217	152.76968	1529.99033	-163.41442	192.05036	1580.77337	-166.84756	106.31355	1566.68811	-29.39845	107.04933	1718.23678	-260.30028	461.47024	1673.82469	80.24151	465.92595	1642.95128	-259.75221	270.14314	1643.26144	72.04896	228.43148	
432	4.310	1625.52281	-61.79461	985.82253	1640.78007	-86.44943	801.43361	1758.19753	-56.53042	962.83213	1723.92774	-2.23535	652.04546	1734.22334	-178.32778	656.91470	1619.93278	-59.59420	711.46216	1623.80808	-130.14445	712.81867	1714.54934	-51.28316	382.04324	1672.41992	8.40084	342.84056	1606.69040	8.23356	74.44651	1608.45040	-60.30883	93.26443	1654.37250	-29.24243	68.47740	1797.06086	-144.33899	383.21762	1739.48210	-190.60921	352.92905	1571.99177	-198.10067	142.09483	1574.91063	-128.89876	152.06449	1552.37205	-162.99958	190.76356	1606.43254	-166.82223	107.21051	1567.59771	-29.82801	108.13257	1733.93221	-259.88409	464.64805	1677.11408	81.04528	466.27263	1663.75658	-259.35479	271.88666	1643.68446	72.64169	228.77862	
433	4.320	1634.34719	-62.91782	986.70570	1648.55755	-86.72806	801.98848	1766.84927	-57.54652	963.13948	1730.63773	-1.08483	652.60109	1743.57822	-177.01896	657.41318	1627.31109	-60.34151	711.51575	1631.98764	-130.71399	712.69373	1717.91409	-49.90686	381.51504	1674.70775	9.36313	342.98665	1606.95759	8.27578	74.91696	1609.60432	-60.12629	94.00917	1654.95910	-28.85908	68.58599	1814.76636	-143.52113	388.27296	1758.35303	-189.98588	356.08547	1596.67558	-197.74055	141.05979	1599.11388	-128.45949	150.91672	1575.28743	-162.58747	188.93408	1632.58190	-166.57850	107.69593	1568.51526	-29.98578	109.11825	1749.51758	-259.38370	467.47426	1680.49840	81.82429	466.47136	1684.85913	-258.85433	273.22751	1644.38651	73.31612	229.00766	
434	4.330	1643.22601	-63.96231	987.15121	1656.34754	-87.12277	802.13136	1775.57781	-58.50764	962.93504	1737.34645	-0.03186	652.88177	1752.91101	-175.77773	657.43626	1634.68105	-61.22396	711.19637	1640.14279	-131.42241	712.11570	1721.39103	-48.48812	380.80597	1677.12680	10.38611	343.00481	1607.25431	8.52734	75.26538	1610.66707	-59.73422	94.65762	1655.51382	-28.33866	68.60649	1832.13170	-142.50917	393.11775	1777.03751	-189.16305	359.00278	1621.96574	-197.29928	139.57366	1623.82269	-127.93312	149.32467	1598.69614	-162.16937	186.56793	1659.19182	-166.13168	107.79092	1569.41127	-29.85498	110.00295	1764.92901	-258.76273	469.92364	1683.98302	82.61047	466.55352	1706.20915	-258.22643	274.18451	1645.31204	74.10441	229.12325	
435	4.340	1652.18123	-64.97470	987.19734	1664.17572	-87.65718	801.90469	1784.40620	-59.43820	962.26476	1744.09763	0.92312	652.93419	1762.24065	-174.60632	657.00819	1642.08950	-62.22472	710.55300	1648.31224	-132.25612	711.11840	1724.91786	-47.02354	379.94098	1679.61987	11.49023	342.92719	1607.56234	8.97555	75.50650	1611.61793	-59.14444	95.22250	1656.02349	-27.68679	68.55245	1849.05069	-141.24746	397.69565	1795.43468	-188.09626	361.64852	1647.81667	-196.78167	137.66712	1648.97972	-127.32297	147.27993	1622.54097	-161.74197	183.66450	1686.21696	-165.49462	107.51105	1570.26190	-29.45179	110.79365	1780.10647	-257.98118	471.97368	1687.58833	83.42531	466.54740	1727.74244	-257.44560	274.77170	1646.39976	75.01691	229.13846	
436	4.350	1661.23299	-66.00373	986.89055	1672.06708	-88.34527	801.35622	1793.35453	-60.36716	961.18611	1750.94037	1.78285	652.80492	1771.59113	-173.50447	656.16763	1649.58549	-63.31947	709.63269	1656.53837	-133.19317	709.74074	1728.45685	-45.52252	378.94944	1682.15309	12.67838	342.78630	1607.86415	9.58926	75.66432	1612.44831	-58.38834	95.72258	1656.47990	-26.92194	68.44163	1865.41196	-139.67553	401.93409	1813.43634	-186.74233	363.98116	1674.15955	-196.19187	135.36113	1674.49528	-126.63772	144.76945	1646.74346	-161.30964	180.21906	1713.58412	-164.67557	106.86382	1571.05263	-28.81772	111.50784	1795.00101	-256.99618	473.60091	1691.35000	84.28002	466.47592	1749.38342	-256.48607	274.99305	1647.59455	76.04466	229.07330	
